<svg id="Camada_x0020_1" xmlns="http://www.w3.org/2000/svg" width="1920" height="1424.715" viewBox="0 0 1920 1424.715">
  <g id="_2665141674256" transform="translate(0 0)">
    <path id="Caminho_572" data-name="Caminho 572" d="M2938.309,284.88v284.88c0,157.327-127.552,284.88-284.879,284.88s-284.879-127.553-284.879-284.88V284.88C2368.551,127.553,2496.1,0,2653.43,0s284.879,127.553,284.879,284.88ZM2664.13,501.919V207.068a64.848,64.848,0,0,1,19.043-45.548l.048-.048a64.991,64.991,0,0,1,110.918,44.636h.231a75.5,75.5,0,0,1,53.5,22.184l.048.048a75.579,75.579,0,0,1,4.307,102.267c.307,1.152.564,2.295.769,3.463a59.994,59.994,0,0,1,1.095,11.344,59.3,59.3,0,0,1-1.112,11.421c-.225,1.2-.5,2.371-.812,3.532a75.621,75.621,0,0,1-4.27,102.367l-.057.048a75.436,75.436,0,0,1-53.5,22.184c-1.069,0-2.164-.017-3.272-.074A64.947,64.947,0,0,1,2690.1,517.245a169.433,169.433,0,0,0,47.8,94.343,171.254,171.254,0,0,0,33.133,25.816c2.463.134,4.948.208,7.451.208A136.188,136.188,0,0,0,2914.2,501.9V284.857c0-144.053-116.77-260.82-260.82-260.82s-260.814,116.77-260.814,260.82V501.9a135.257,135.257,0,0,0,39.879,95.828,136.637,136.637,0,0,0,50.867,32.172h.026l1.559.547h.017l1.568.522h.017l1.582.513h.017l1.582.49h.017a133.781,133.781,0,0,0,33.466,5.527l1.659.057h.074l1.659.034h.092l1.659.026h.433l1.151-.026h.239c1.773-.017,3.523-.074,5.27-.165h.108l.231-.017a171.3,171.3,0,0,0,33.14-25.816,169.359,169.359,0,0,0,47.8-94.326,65.035,65.035,0,0,1-100.965-32.354c-1.112.057-2.195.074-3.272.074a75.515,75.515,0,0,1-53.5-22.178l-.048-.057a75.625,75.625,0,0,1-4.273-102.358c-.3-1.169-.564-2.354-.786-3.54a59.4,59.4,0,0,1-1.126-11.421,58.276,58.276,0,0,1,1.112-11.322c.225-1.169.465-2.32.77-3.463a75.533,75.533,0,0,1,4.307-102.267l.048-.057a75.5,75.5,0,0,1,53.5-22.178h.231A64.981,64.981,0,0,1,2623.6,161.494l.048.057a64.739,64.739,0,0,1,19.043,45.6V502.771a134.387,134.387,0,0,0,10.683,51.83,134.247,134.247,0,0,0,10.649-48.082l.017-.522c.043-1.077.057-2.146.057-3.224v-.861h.034Zm249.55,85a161.079,161.079,0,0,1-95.395,69.756,170.08,170.08,0,0,0,39.788,4.683,173.807,173.807,0,0,0,22.367-1.425,166.42,166.42,0,0,0,19.111-3.688,259.23,259.23,0,0,0,14.129-69.323h0Zm-25.225,96.076c-1.633.265-3.272.5-4.931.713a193.339,193.339,0,0,1-119.72-22.683,159.632,159.632,0,0,1-98.18-46.244,157.778,157.778,0,0,1-12.191-13.659,162.6,162.6,0,0,1-12.174,13.642A159.522,159.522,0,0,1,2543,661.021a193.059,193.059,0,0,1-94.212,24.4,196.676,196.676,0,0,1-25.476-1.716c-1.659-.225-3.289-.448-4.931-.713a260.821,260.821,0,0,0,235.03,147.582c103.468,0,192.883-60.259,235.021-147.582h.017Zm-481.125-26.75a166.3,166.3,0,0,0,19.111,3.688,173.073,173.073,0,0,0,62.155-3.258,160.006,160.006,0,0,1-73.1-41.894,161.9,161.9,0,0,1-22.293-27.862,259.24,259.24,0,0,0,14.129,69.323h0Zm173.953-215.383a75.726,75.726,0,0,1-41.82,39.124,41.006,41.006,0,0,0,78.316-5.909,169.693,169.693,0,0,0-61.858-114.432,58.723,58.723,0,0,1-51.032,18.208,63.106,63.106,0,0,1-7.568-1.442l6.117-23.222a32.729,32.729,0,0,0,4.458.886,37.162,37.162,0,0,0,4.609.248,35.527,35.527,0,0,0,30.365-16.94,12.356,12.356,0,0,1,.9-1.482,12.021,12.021,0,0,1,16.723-2.916,193.812,193.812,0,0,1,58.169,65v-140.1a64.937,64.937,0,0,1-28.427,13.36,74.813,74.813,0,0,1,.656,9.705,77.412,77.412,0,0,1-9.366,36.464l-21.05-11.57a53.112,53.112,0,0,0,4.8-12.026,52.435,52.435,0,0,0,1.573-12.869,51.262,51.262,0,0,0-.678-8.5,50.663,50.663,0,0,0-2.081-8.22h.017a12.173,12.173,0,0,1-.639-4.176A11.978,11.978,0,0,1,2575.79,248.4l1.929.043V248.4a40.8,40.8,0,0,0,28.957-11.943l.057-.057a41.064,41.064,0,0,0,0-57.9l-.057-.057a40.963,40.963,0,0,0-69.887,29.005,42.858,42.858,0,0,0,.256,4.783,40.455,40.455,0,0,0,.829,4.683l4.384,18.556-18.621-4.07a54.194,54.194,0,0,0-5.527-.921c-1.673-.165-3.54-.265-5.61-.265a51.678,51.678,0,0,0-35.948,88.831l5.817,5.627-2.993,7.434a35.054,35.054,0,0,0-1.906,6.49,35.7,35.7,0,0,0-.622,6.829,36.892,36.892,0,0,0,.647,6.921,35.325,35.325,0,0,0,1.955,6.547l3.042,7.508-5.869,5.661a51.669,51.669,0,0,0,35.874,88.891,49.791,49.791,0,0,0,5.609-.282,54.068,54.068,0,0,0,5.527-.921v.034a51.61,51.61,0,0,0,35.834-28.891l21.805,9.97h0Zm11.743,180.318a137.458,137.458,0,0,0,46.2-41.13,157.885,157.885,0,0,1-9.241-19.226,193.691,193.691,0,0,1-36.963,60.356Zm74.628-41.048a137.4,137.4,0,0,0,46.261,41.1,193.727,193.727,0,0,1-37-60.39A158.4,158.4,0,0,1,2667.653,580.129Zm79.767-149.224a51.612,51.612,0,0,0,35.834,28.891l.018-.034a51.707,51.707,0,0,0,5.535.921,54.177,54.177,0,0,0,5.6.282,51.676,51.676,0,0,0,35.874-88.891l-5.869-5.661,3.05-7.508a35.4,35.4,0,0,0,1.956-6.547,36.85,36.85,0,0,0,.638-6.9,37.451,37.451,0,0,0-.622-6.829,34.771,34.771,0,0,0-1.9-6.49l-2.993-7.434,5.809-5.618a51.316,51.316,0,0,0,15.714-37.177,51.578,51.578,0,0,0-51.662-51.654,54.44,54.44,0,0,0-5.6.265,50.9,50.9,0,0,0-5.535.921l-18.621,4.062,4.384-18.547a46.855,46.855,0,0,0,.829-4.683,42.823,42.823,0,0,0,.265-4.783,40.948,40.948,0,1,0-69.887,28.957v.048a40.769,40.769,0,0,0,28.948,11.951h1.747a12.02,12.02,0,0,1,12.513,11.478,11.887,11.887,0,0,1-.621,4.358h.017a51.312,51.312,0,0,0-2.09,8.237,53.761,53.761,0,0,0-.672,8.511,50.371,50.371,0,0,0,6.37,24.886l-21.05,11.569a77.078,77.078,0,0,1-9.389-36.456,73.5,73.5,0,0,1,.664-9.714,64.931,64.931,0,0,1-28.426-13.334v140.1a193.606,193.606,0,0,1,58.187-65.022,12,12,0,0,1,16.723,2.916,11.051,11.051,0,0,1,.878,1.468,36.333,36.333,0,0,0,35,16.726,38.029,38.029,0,0,0,4.518-.878l6.017,23.213a58.062,58.062,0,0,1-7.508,1.451,59.642,59.642,0,0,1-51.058-18.216,169.675,169.675,0,0,0-61.849,114.441,40.983,40.983,0,0,0,78.319,5.923,75.845,75.845,0,0,1-41.8-39.132l21.805-9.97-.057-.091Z" transform="translate(-1693.434 0)" fill="#fdc62b" fill-rule="evenodd"/>
    <g id="Grupo_532" data-name="Grupo 532" transform="translate(0 997.081)">
      <path id="Caminho_573" data-name="Caminho 573" d="M600.223,4586.257v34.666H556.807v-34.666h-15.6v83.951h15.6V4634.23h43.416v35.977h15.588v-83.951Zm44.254,9.357a9.206,9.206,0,0,0,9.6-9.357c0-4.922-4.085-8.637-9.6-8.637s-9.6,3.954-9.6,8.993S638.957,4595.614,644.478,4595.614Zm-7.559,74.6h14.993v-64.044H636.919Zm70.169-64.756c-8.759,0-16.2,2.993-21.232,9.107v-8.395H671.584v87.317h14.993v-31.06c5.154,5.875,12.356,8.636,20.511,8.636,18.7,0,32.5-12.952,32.5-32.867,0-19.781-13.8-32.736-32.5-32.736Zm-1.682,52.766c-10.8,0-19.069-7.8-19.069-20.029s8.272-20.023,19.069-20.023,18.952,7.789,18.952,20.023S716.195,4658.219,705.406,4658.219Zm84.8-52.766c-9.358,0-17.156,3.115-22.07,8.993v-8.28H753.862v64.044h14.993v-32.38c0-12.838,7.194-19.311,17.869-19.311,9.589,0,15.232,5.519,15.232,16.905v34.783h14.993v-36.7c0-19.311-11.4-28.062-26.745-28.062Zm75.2,65.6c19.907,0,34.178-13.673,34.178-32.867s-14.271-32.736-34.178-32.736c-19.673,0-34.062,13.551-34.062,32.736S845.728,4671.057,865.4,4671.057Zm0-12.837c-10.8,0-18.952-7.8-18.952-20.029s8.155-20.023,18.952-20.023c10.905,0,19.069,7.789,19.069,20.023S876.31,4658.219,865.4,4658.219Zm82.865-2.155a13.486,13.486,0,0,1-8.394,2.637c-5.752,0-8.867-3.358-8.867-9.6v-30.464h17.148v-11.991H931.008v-14.637H916.015v14.637H905.457v11.991h10.558v30.829c0,14.146,8.029,21.589,22.062,21.589,5.4,0,10.8-1.442,14.394-4.318l-4.2-10.674Zm74.6-17.512c0-20.029-13.673-33.1-32.38-33.1-19.077,0-33.11,13.667-33.11,32.736s13.915,32.868,35.387,32.868c11.031,0,20.024-3.6,25.781-10.435l-8.029-9.232c-4.558,4.674-10.2,6.952-17.4,6.952-11.156,0-18.952-6-20.751-15.357h50.254c.117-1.434.239-3.241.239-4.436Zm-32.38-21.107c9.828,0,16.905,6.356,18.108,15.589H972.26c1.434-9.358,8.511-15.589,18.234-15.589Zm61.046-1.924v-9.357h-14.272v64.044h14.993v-31.06c0-13.069,7.194-19.79,18.59-19.79a19.094,19.094,0,0,1,3.472.364v-14.271C1063.645,4605.451,1055.855,4608.809,1051.537,4615.521Zm59.6-10.07c-10.31,0-20.272,2.637-27.1,7.916l5.875,10.914c4.8-3.961,12.231-6.355,19.425-6.355,10.675,0,15.953,5.153,15.953,13.907v.96h-16.549c-19.434,0-26.628,8.394-26.628,19.069,0,11.156,9.241,19.194,23.869,19.194,9.6,0,16.549-3.125,20.146-8.637v7.79h14.155v-37.534c0-18.472-10.674-27.223-29.147-27.223Zm-2.03,54.689c-7.682,0-12.239-3.479-12.239-8.875,0-4.674,2.759-8.52,12.952-8.52H1125.3v7.442C1122.775,4656.783,1116.419,4660.14,1109.111,4660.14Zm85.875-54.689c-8.759,0-16.193,2.993-21.232,9.107v-8.395h-14.272v87.317h14.993V4662.42c5.153,5.875,12.356,8.637,20.511,8.637,18.7,0,32.5-12.952,32.5-32.867,0-19.781-13.8-32.737-32.5-32.737Zm-1.682,52.766c-10.791,0-19.069-7.8-19.069-20.03s8.28-20.023,19.069-20.023,18.952,7.79,18.952,20.023S1204.1,4658.216,1193.3,4658.216Zm108.663-19.668c0-20.028-13.673-33.1-32.38-33.1-19.077,0-33.109,13.667-33.109,32.736s13.915,32.867,35.387,32.867c11.031,0,20.024-3.6,25.781-10.435l-8.029-9.232c-4.566,4.674-10.2,6.952-17.4,6.952-11.156,0-18.952-6-20.75-15.358h50.254c.117-1.433.239-3.24.239-4.435Zm-32.38-21.106c9.828,0,16.905,6.356,18.108,15.588h-36.339c1.434-9.358,8.511-15.588,18.234-15.588Zm93.779-11.279v32.388c0,12.838-7.069,19.311-17.5,19.311-9.472,0-14.993-5.518-14.993-17.156v-34.543h-14.993v36.581c0,19.311,11.156,28.31,27.58,28.31,8.28,0,15.837-3.125,20.628-9v8.155h14.271v-64.044h-14.993Zm68.967,49.9a13.483,13.483,0,0,1-8.394,2.637c-5.76,0-8.876-3.358-8.876-9.6v-30.464h17.148v-11.991h-17.148v-14.637H1400.07v14.637h-10.558v11.991h10.558v30.829c0,14.146,8.029,21.589,22.062,21.589,5.4,0,10.8-1.442,14.394-4.318l-4.193-10.674Zm41.013-50.61c-10.31,0-20.272,2.636-27.1,7.915l5.875,10.914c4.8-3.962,12.231-6.356,19.425-6.356,10.675,0,15.953,5.153,15.953,13.907v.96h-16.549c-19.433,0-26.628,8.394-26.628,19.069,0,11.156,9.241,19.194,23.869,19.194,9.6,0,16.549-3.125,20.146-8.637v7.79h14.155v-37.533c0-18.473-10.674-27.224-29.147-27.224Zm-2.03,54.689c-7.682,0-12.239-3.48-12.239-8.876,0-4.674,2.759-8.52,12.952-8.52H1487.5v7.442c-2.52,6.6-8.876,9.953-16.184,9.953Zm147.756,10.07h16.318l-37.9-83.951h-15.358l-37.781,83.951h16.079l8.272-19.425h41.983Zm-45.092-31.659,15.714-36.7,15.828,36.7H1573.98Zm112.982-32.388-20.511,47.5-19.907-47.5h-15.6l27.472,64.044h15.472l27.457-64.044h-14.386Zm46.17-.712c-10.31,0-20.272,2.636-27.1,7.915l5.875,10.914c4.8-3.962,12.231-6.356,19.434-6.356,10.675,0,15.945,5.153,15.945,13.907v.96h-16.549c-19.425,0-26.628,8.394-26.628,19.069,0,11.156,9.241,19.194,23.869,19.194,9.6,0,16.549-3.124,20.146-8.637v7.79h14.155v-37.533c0-18.473-10.675-27.224-29.148-27.224Zm-2.029,54.689c-7.682,0-12.24-3.48-12.24-8.876,0-4.674,2.759-8.52,12.952-8.52h15.472v7.442C1744.767,4656.783,1738.419,4660.141,1731.1,4660.141Zm86.71-54.689c-9.358,0-17.156,3.116-22.07,8.993v-8.28H1781.47v64.044h14.993v-32.38c0-12.837,7.194-19.311,17.869-19.311,9.6,0,15.232,5.519,15.232,16.905v34.783h14.993v-36.7c0-19.311-11.4-28.062-26.745-28.062Zm75.673,52.765c-11.031,0-19.425-7.559-19.425-20.029,0-12.347,8.394-20.023,19.425-20.023a18.149,18.149,0,0,1,15.962,8.867l11.512-6.712c-4.923-9.714-14.876-14.867-27.349-14.867-20.272,0-34.657,13.551-34.657,32.736,0,16.915,11.148,29.512,27.58,32.263l-3,11.156h3.719c4.558,0,6.356,1.682,6.356,3.962,0,2.636-1.916,4.318-6.356,4.318a17.03,17.03,0,0,1-8.155-1.924l-2.759,7.078a22.382,22.382,0,0,0,11.039,2.52c9.828,0,16.31-4.436,16.31-11.4,0-5.154-3.364-9.232-10.435-10.079l1.317-5.031c11.991-.24,21.588-5.636,26.388-14.993l-11.512-6.722a18.141,18.141,0,0,1-15.962,8.876Zm64.891-52.765c-10.318,0-20.271,2.636-27.107,7.915l5.875,10.914c4.8-3.962,12.239-6.356,19.434-6.356,10.675,0,15.953,5.153,15.953,13.907v.96h-16.549c-19.434,0-26.628,8.394-26.628,19.069,0,11.156,9.232,19.194,23.86,19.194,9.6,0,16.558-3.124,20.155-8.637v7.79h14.155v-37.533c0-18.473-10.675-27.224-29.147-27.224Zm-2.038,54.689c-7.673,0-12.231-3.48-12.231-8.876,0-4.674,2.759-8.52,12.952-8.52h15.472v7.442C1970.012,4656.783,1963.655,4660.141,1956.339,4660.141Zm98.71-78.92v32.859c-5.039-5.875-12.356-8.628-20.636-8.628-18.59,0-32.38,12.829-32.38,32.736s13.79,32.868,32.38,32.868c8.759,0,16.193-3,21.232-9.116v8.272h14.394V4581.22h-14.993Zm-18.829,77c-10.8,0-19.069-7.8-19.069-20.029s8.271-20.024,19.069-20.024,19.069,7.79,19.069,20.024S2047.008,4658.219,2036.219,4658.219Zm82.269,12.838c19.915,0,34.187-13.673,34.187-32.867s-14.271-32.737-34.187-32.737c-19.667,0-34.062,13.551-34.062,32.737S2098.821,4671.057,2118.488,4671.057Zm0-12.838c-10.792,0-18.946-7.8-18.946-20.029s8.155-20.024,18.946-20.024c10.914,0,19.077,7.79,19.077,20.024S2129.4,4658.219,2118.488,4658.219Z" transform="translate(-386.947 -4269.926)" fill="#2a579a"/>
      <g id="Grupo_531" data-name="Grupo 531">
        <path id="Caminho_574" data-name="Caminho 574" d="M90.458,3498.15H0v231.923H33.132V3659.83H90.455c60.29,0,96.738-30.481,96.738-80.844s-36.447-80.835-96.738-80.835ZM89.463,3631H33.135V3526.973H89.463c42.407,0,64.6,18.878,64.6,52.013s-22.193,52.021-64.6,52.021Z" transform="translate(0 -3498.142)" fill="#2a579a"/>
        <path id="Caminho_575" data-name="Caminho 575" d="M835.415,3689.93c-28.17,0-54.342,7.947-72.564,22.535l13.251,23.852c13.59-11.6,34.791-18.886,55.667-18.886,31.476,0,47.048,15.58,47.048,42.407v6.3H828.454c-52.352,0-70.574,23.2-70.574,51.357,0,30.481,25.186,51.679,64.939,51.679,27.506,0,47.048-9.275,57.656-25.177v23.2h30.151v-106.03c0-48.034-27.175-71.229-75.209-71.229Zm-7.294,154.725c-24.191,0-38.767-10.931-38.767-28.492,0-14.91,8.95-27.167,40.426-27.167h49.037v24.513c-7.955,20.212-26.842,31.143-50.693,31.143Z" transform="translate(-541.859 -3635.258)" fill="#2a579a"/>
        <path id="Caminho_576" data-name="Caminho 576" d="M1579.437,3695.75v90.78c0,37.773-21.207,58.31-54.342,58.31-30.151,0-47.37-17.222-47.37-51.679V3695.75H1445.91v101.056c0,51.679,30.151,76.526,75.548,76.526,24.846,0,46.717-10.267,59.638-28.492v26.511h30.151v-175.6H1579.44Z" transform="translate(-1033.777 -3639.418)" fill="#2a579a"/>
        <path id="Caminho_577" data-name="Caminho 577" d="M2178.11,3730.073h31.807V3498.15H2178.11Z" transform="translate(-1557.276 -3498.142)" fill="#2a579a"/>
        <path id="Caminho_578" data-name="Caminho 578" d="M2533.294,3869.17c52.683,0,91.111-37.433,91.111-89.786s-38.428-89.455-91.111-89.455-91.444,37.112-91.444,89.455S2480.617,3869.17,2533.294,3869.17Zm0-27.828c-33.8,0-59.3-24.513-59.3-61.958s25.508-61.624,59.3-61.624,58.973,24.191,58.973,61.624S2567.091,3841.343,2533.294,3841.343Z" transform="translate(-1745.841 -3635.258)" fill="#2a579a"/>
        <path id="Caminho_579" data-name="Caminho 579" d="M3746.11,3498.15l-84.159,190.5-83.5-190.5H3542.67l102.05,231.923h32.8l101.712-231.923Z" transform="translate(-2532.89 -3498.142)" fill="#2a579a"/>
        <path id="Caminho_580" data-name="Caminho 580" d="M4474.061,3871.351h31.807v-175.6h-31.807Z" transform="translate(-3198.803 -3639.419)" fill="#2a579a"/>
        <path id="Caminho_581" data-name="Caminho 581" d="M4912.731,3780.38c0-54-36.108-90.45-86.8-90.45s-88.129,37.442-88.129,89.455c0,52.353,37.772,89.786,94.426,89.786,29.156,0,53.347-9.936,69.24-28.492l-17.561-20.536c-12.92,14.246-30.15,21.2-50.684,21.2-34.792,0-59.644-20.545-63.614-51.357h142.469c.331-2.976.655-6.952.655-9.606Zm-86.8-63.6c30.812,0,53.013,20.867,56.329,50.354H4769.607C4772.922,3737.311,4795.448,3716.775,4825.93,3716.775Z" transform="translate(-3387.368 -3635.258)" fill="#2a579a"/>
        <path id="Caminho_582" data-name="Caminho 582" d="M5503.7,3871.351h31.807v-175.6H5503.7Z" transform="translate(-3934.961 -3639.419)" fill="#2a579a"/>
        <path id="Caminho_583" data-name="Caminho 583" d="M5797.921,3721.075v-29.487H5767.44v175.6h31.807v-87.474c0-38.428,21.207-59.3,55.328-59.3a56.363,56.363,0,0,1,7.293.331V3689.93c-30.812,0-52.674,10.6-63.944,31.143Z" transform="translate(-4123.526 -3635.258)" fill="#2a579a"/>
        <path id="Caminho_584" data-name="Caminho 584" d="M6277.7,3689.93c-28.161,0-54.333,7.947-72.556,22.535l13.252,23.852c13.581-11.6,34.791-18.886,55.658-18.886,31.485,0,47.048,15.58,47.048,42.407v6.3h-50.362c-52.344,0-70.569,23.2-70.569,51.357,0,30.481,25.186,51.679,64.939,51.679,27.5,0,47.048-9.275,57.648-25.177v23.2h30.156v-106.03c0-48.034-27.175-71.229-75.218-71.229Zm-7.286,154.725c-24.19,0-38.767-10.931-38.767-28.492,0-14.91,8.95-27.167,40.427-27.167H6321.1v24.513c-7.947,20.212-26.836,31.143-50.685,31.143Z" transform="translate(-4432.914 -3635.258)" fill="#2a579a"/>
        <path id="Caminho_585" data-name="Caminho 585" d="M4483.151,3498.12a18.621,18.621,0,1,1-18.621,18.621A18.621,18.621,0,0,1,4483.151,3498.12Z" transform="translate(-3191.989 -3498.12)" fill="#2a579a" fill-rule="evenodd"/>
        <path id="Caminho_586" data-name="Caminho 586" d="M5512.791,3498.12a18.621,18.621,0,1,1-18.621,18.621A18.621,18.621,0,0,1,5512.791,3498.12Z" transform="translate(-3928.147 -3498.12)" fill="#2a579a" fill-rule="evenodd"/>
      </g>
    </g>
  </g>
</svg>
