<svg id="Camada_x0020_1" xmlns="http://www.w3.org/2000/svg" width="1920" height="1099.978" viewBox="0 0 1920 1099.978">
  <path id="Caminho_521" data-name="Caminho 521" d="M949.347,220V440c0,121.5-98.5,220-220,220s-220-98.5-220-220V220c0-121.5,98.5-220,220-220S949.347,98.5,949.347,220ZM737.615,387.609V160.215h0v-.305a50.054,50.054,0,0,1,14.7-35.172l.043-.044a50.191,50.191,0,0,1,85.658,34.475h.174A58.3,58.3,0,0,1,879.511,176.3l.044.044a58.368,58.368,0,0,1,3.327,78.975c.232.886.436,1.772.6,2.673a46.717,46.717,0,0,1,.843,8.76,46.045,46.045,0,0,1-.857,8.819c-.174.93-.392,1.831-.625,2.731a58.389,58.389,0,0,1-3.3,79.047l-.044.044a58.272,58.272,0,0,1-41.318,17.129c-.828,0-1.671-.015-2.528-.058a50.156,50.156,0,0,1-77.972,24.988,130.818,130.818,0,0,0,36.916,72.858,132.15,132.15,0,0,0,25.584,19.933c1.9.1,3.821.16,5.754.16A105.158,105.158,0,0,0,930.737,387.594h0V219.984c0-111.241-90.176-201.417-201.417-201.417S527.9,108.742,527.9,219.984v167.61h0A104.444,104.444,0,0,0,558.7,461.6a105.514,105.514,0,0,0,39.284,24.843H598l1.206.421h.015l1.206.407h.015l1.22.392h.014l1.22.378h.015a103.406,103.406,0,0,0,25.845,4.271l1.278.044h.058l1.279.029h.073l1.278.015h.334l.886-.015h.189c1.365-.015,2.716-.058,4.068-.131h.088l.174-.015a132.26,132.26,0,0,0,25.6-19.933,130.824,130.824,0,0,0,36.916-72.844A50.225,50.225,0,0,1,623,374.475c-.857.044-1.7.058-2.528.058A58.3,58.3,0,0,1,579.157,357.4l-.044-.044a58.4,58.4,0,0,1-3.3-79.047c-.233-.9-.436-1.816-.61-2.731a46.175,46.175,0,0,1-.872-8.819,45.3,45.3,0,0,1,.857-8.746c.174-.9.363-1.787.6-2.673a58.34,58.34,0,0,1,3.327-78.975l.044-.044A58.271,58.271,0,0,1,620.475,159.2h.175a50.18,50.18,0,0,1,85.657-34.475l.043.044a50,50,0,0,1,14.7,35.216v.232h0V388.277a103.841,103.841,0,0,0,8.252,40.025,103.63,103.63,0,0,0,8.223-37.134l.015-.407q.043-1.242.044-2.484v-.668ZM930.33,453.247a124.4,124.4,0,0,1-73.672,53.87,131.383,131.383,0,0,0,30.727,3.617,133.446,133.446,0,0,0,17.274-1.1,128.165,128.165,0,0,0,14.76-2.847,200.466,200.466,0,0,0,10.911-53.536Zm-19.482,74.195c-1.264.2-2.527.392-3.806.552a149.381,149.381,0,0,1-92.457-17.521,123.949,123.949,0,0,1-85.236-46.257,124.436,124.436,0,0,1-9.4,10.533,123.167,123.167,0,0,1-75.88,35.725,149.078,149.078,0,0,1-72.756,18.843,151.825,151.825,0,0,1-19.671-1.322c-1.279-.174-2.543-.349-3.806-.552a201.5,201.5,0,0,0,363,0ZM539.292,506.782a128.161,128.161,0,0,0,14.761,2.847,133.489,133.489,0,0,0,48-2.513A123.6,123.6,0,0,1,545.6,474.763a125,125,0,0,1-17.216-21.516,200.484,200.484,0,0,0,10.91,53.536ZM673.634,340.451a58.484,58.484,0,0,1-32.3,30.218,31.668,31.668,0,0,0,60.48-4.562,131.061,131.061,0,0,0-47.768-88.374A45.378,45.378,0,0,1,614.635,291.8a47.256,47.256,0,0,1-5.841-1.119l4.722-17.928a25.691,25.691,0,0,0,3.443.683,28.141,28.141,0,0,0,3.559.189,27.427,27.427,0,0,0,23.448-13.075,9.321,9.321,0,0,1,13.613-3.4A149.624,149.624,0,0,1,702.5,307.341V199.151a50.131,50.131,0,0,1-21.952,10.315,57.568,57.568,0,0,1,.508,7.5,58.6,58.6,0,0,1-1.874,14.514,59.363,59.363,0,0,1-5.361,13.642l-16.257-8.935a38.959,38.959,0,0,0,4.925-19.221,39.671,39.671,0,0,0-.523-6.567,39.171,39.171,0,0,0-1.612-6.349h.014a9.437,9.437,0,0,1-.494-3.225,9.255,9.255,0,0,1,9.516-8.993l1.5.029v-.029a31.5,31.5,0,0,0,22.359-9.225l.044-.044a31.708,31.708,0,0,0,0-44.717l-.044-.044a31.635,31.635,0,0,0-53.971,22.4,32.32,32.32,0,0,0,.2,3.69,30.376,30.376,0,0,0,.639,3.617l3.385,14.325L629.12,178.7a40.9,40.9,0,0,0-4.271-.712,43.111,43.111,0,0,0-4.329-.2,39.907,39.907,0,0,0-27.763,68.6l4.49,4.344-2.31,5.739a26.987,26.987,0,0,0-1.467,5.012,27.589,27.589,0,0,0-.479,5.274,28.671,28.671,0,0,0,.494,5.346,27.593,27.593,0,0,0,1.511,5.056l2.353,5.8-4.533,4.373a39.9,39.9,0,0,0,27.705,68.645,38.982,38.982,0,0,0,4.33-.218,41.549,41.549,0,0,0,4.271-.712v.029A39.852,39.852,0,0,0,656.8,332.751l16.838,7.7ZM682.7,479.7a106.12,106.12,0,0,0,35.681-31.758,122.275,122.275,0,0,1-7.133-14.848A149.579,149.579,0,0,1,682.7,479.7ZM740.332,448a106.021,106.021,0,0,0,35.725,31.744,149.694,149.694,0,0,1-28.577-46.635A121.938,121.938,0,0,1,740.332,448Zm61.6-115.237a39.854,39.854,0,0,0,27.676,22.315l.015-.029a40.9,40.9,0,0,0,4.271.712,42.829,42.829,0,0,0,4.329.218,39.9,39.9,0,0,0,27.705-68.645l-4.533-4.373,2.354-5.8a27.269,27.269,0,0,0,1.511-5.056,28.4,28.4,0,0,0,.494-5.332,28.9,28.9,0,0,0-.48-5.274,26.959,26.959,0,0,0-1.467-5.012l-2.31-5.739,4.489-4.344a39.906,39.906,0,0,0-27.763-68.6,43.109,43.109,0,0,0-4.329.2,40.9,40.9,0,0,0-4.271.712l-14.383,3.138,3.385-14.325a34.869,34.869,0,0,0,.64-3.617,32.26,32.26,0,0,0,.2-3.69,31.62,31.62,0,1,0-63.241,0h0a31.523,31.523,0,0,0,9.269,22.359v.044a31.5,31.5,0,0,0,22.359,9.225H789.2a9.273,9.273,0,0,1,9.182,12.233h.014a38.958,38.958,0,0,0-1.613,6.363,41.224,41.224,0,0,0-.523,6.567,38.962,38.962,0,0,0,4.925,19.221l-16.257,8.935a59.468,59.468,0,0,1-7.249-28.155,57.484,57.484,0,0,1,.508-7.5,50.106,50.106,0,0,1-21.952-10.3V307.414A149.573,149.573,0,0,1,801.175,257.2a9.259,9.259,0,0,1,12.916,2.252,9.006,9.006,0,0,1,.683,1.133,27.416,27.416,0,0,0,23.463,13.1,28.141,28.141,0,0,0,3.559-.189,28.915,28.915,0,0,0,3.487-.683l4.649,17.928a43.97,43.97,0,0,1-5.8,1.119,46.08,46.08,0,0,1-39.429-14.063,131.062,131.062,0,0,0-47.768,88.374,31.649,31.649,0,0,0,60.48,4.576,58.53,58.53,0,0,1-32.282-30.218l16.839-7.7Z" transform="translate(230.637 0)" fill="#fdc62b" fill-rule="evenodd"/>
  <g id="_2084686963264" transform="translate(0 770.002)">
    <path id="Caminho_522" data-name="Caminho 522" d="M26.659,700.113H0v64.8H12.029v-18.7h14.63c17.027,0,27.574-8.79,27.574-23.042,0-14.354-10.547-23.042-27.574-23.042Zm-.552,35.914H12.044V710.3H26.107c10.547,0,16.01,4.721,16.01,12.872s-5.463,12.857-16.01,12.857Zm55.25,29.521c13.889,0,22.4-6.015,22.4-15.269,0-19.351-30.553-10.475-30.553-20.455,0-3.24,3.327-5.55,10.373-5.55a27.087,27.087,0,0,1,14.165,3.7l4.446-8.789c-4.446-2.688-11.942-4.257-18.509-4.257-13.322,0-21.749,6.1-21.749,15.458,0,19.714,30.538,10.809,30.538,20.267,0,3.428-3.051,5.463-10.359,5.463A33.165,33.165,0,0,1,64.9,751.208L60.451,760c4.446,3.152,12.683,5.55,20.92,5.55Zm38.223-58.214a7.114,7.114,0,0,0,7.409-7.22c0-3.792-3.153-6.668-7.409-6.668s-7.409,3.051-7.409,6.944S115.324,707.334,119.581,707.334Zm-5.826,57.575h11.564V715.484H113.755Zm49.424.639c9.632,0,17.317-4.17,21.109-11.564L175.4,748.8a13.99,13.99,0,0,1-12.32,6.843c-8.513,0-14.993-5.826-14.993-15.458,0-9.531,6.48-15.458,14.993-15.458a13.99,13.99,0,0,1,12.32,6.843l8.891-5.187c-3.792-7.5-11.477-11.477-21.109-11.477-15.647,0-26.746,10.46-26.746,25.265s11.1,25.351,26.746,25.351Zm49.977-50.63c-7.961,0-15.647,2.034-20.92,6.1l4.533,8.426c3.7-3.051,9.443-4.91,14.993-4.91,8.237,0,12.305,3.981,12.305,10.736v.741H211.3c-14.993,0-20.557,6.479-20.557,14.717,0,8.6,7.133,14.8,18.422,14.8,7.409,0,12.77-2.411,15.545-6.668v6.015h10.925V735.91c0-14.252-8.237-21.008-22.489-21.008Zm-1.569,42.2c-5.927,0-9.443-2.673-9.443-6.843,0-3.617,2.136-6.581,10-6.581h11.942v5.739C222.134,754.535,217.238,757.121,211.587,757.121Zm66.916-42.2c-7.22,0-13.235,2.412-17.027,6.944v-6.392H250.464v49.424h11.579V739.906c0-9.908,5.55-14.906,13.787-14.906,7.409,0,11.753,4.257,11.753,13.046v26.848h11.564V736.579c0-14.906-8.789-21.661-20.63-21.661Zm73.57-18.886h-13.6l-12.494,12.683h10Zm-19.351,18.886c-7.961,0-15.647,2.034-20.92,6.1l4.533,8.426c3.7-3.051,9.443-4.91,14.993-4.91,8.237,0,12.305,3.981,12.305,10.736v.741h-12.77c-14.993,0-20.543,6.479-20.543,14.717,0,8.6,7.133,14.8,18.422,14.8,7.409,0,12.77-2.411,15.545-6.668v6.015h10.925V735.91c0-14.252-8.237-21.008-22.489-21.008Zm-1.569,42.2c-5.927,0-9.443-2.673-9.443-6.843,0-3.617,2.136-6.581,10-6.581h11.942v5.739C341.7,754.535,336.8,757.121,331.153,757.121Zm38.877,7.772h11.564V696.22H370.03v68.674Zm32.586-57.575a7.114,7.114,0,0,0,7.409-7.22c0-3.792-3.153-6.668-7.409-6.668s-7.409,3.051-7.409,6.945,3.153,6.945,7.409,6.945Zm-5.826,57.575h11.564V715.469H396.79Zm42.015.639c13.889,0,22.4-6.015,22.4-15.269,0-19.351-30.553-10.475-30.553-20.455,0-3.24,3.327-5.55,10.373-5.55a27.088,27.088,0,0,1,14.165,3.7l4.446-8.789c-4.446-2.688-11.942-4.257-18.509-4.257-13.322,0-21.748,6.1-21.748,15.458,0,19.715,30.538,10.809,30.538,20.267,0,3.429-3.051,5.463-10.359,5.463a33.166,33.166,0,0,1-17.216-4.911l-4.446,8.79c4.446,3.153,12.683,5.55,20.92,5.55Zm58.868-11.564A10.354,10.354,0,0,1,491.194,756c-4.446,0-6.843-2.586-6.843-7.409V725.087h13.235v-9.255H484.351V704.544H472.787v11.288h-8.15v9.255h8.15V748.87c0,10.925,6.2,16.663,17.027,16.663,4.17,0,8.325-1.1,11.1-3.327l-3.24-8.238Zm31.657-39.052c-7.961,0-15.647,2.034-20.92,6.1l4.533,8.426c3.7-3.051,9.443-4.91,14.993-4.91,8.237,0,12.305,3.98,12.305,10.736v.741H527.47c-14.993,0-20.543,6.479-20.543,14.717,0,8.6,7.133,14.8,18.422,14.8,7.409,0,12.77-2.411,15.545-6.668v6.015h10.925V735.91c0-14.252-8.237-21.008-22.49-21.008Zm-1.569,42.2c-5.927,0-9.443-2.673-9.443-6.843,0-3.617,2.136-6.581,10-6.581h11.942v5.739C538.308,754.535,533.412,757.121,527.761,757.121Zm110.878-16.664c0-15.458-10.547-25.541-24.988-25.541-14.717,0-25.54,10.547-25.54,25.264s10.736,25.351,27.313,25.351c8.513,0,15.458-2.775,19.889-8.049l-6.2-7.118a17.742,17.742,0,0,1-13.424,5.361c-8.615,0-14.63-4.62-16.01-11.84H638.45c.087-1.1.189-2.5.189-3.414Zm-24.988-16.286c7.584,0,13.046,4.91,13.976,12.029H599.588A13.647,13.647,0,0,1,613.651,724.172Zm108.292-24.059v26.746h-33.5V700.113H676.412v64.8h12.029V737.145h33.5v27.763h12.029v-64.8Zm34.155,7.22a7.106,7.106,0,0,0,7.409-7.22c0-3.792-3.153-6.668-7.409-6.668s-7.409,3.051-7.409,6.944,3.153,6.945,7.409,6.945Zm-5.826,57.575h11.564V715.484H750.273Zm54.146-49.977c-6.756,0-12.494,2.31-16.388,7.032v-6.479H777.019v67.381H788.6V758.894c3.981,4.533,9.53,6.668,15.821,6.668,14.441,0,25.09-10,25.09-25.351,0-15.269-10.649-25.265-25.09-25.265Zm-1.293,40.722c-8.325,0-14.717-6.014-14.717-15.458s6.392-15.458,14.717-15.458,14.63,6.015,14.63,15.458S811.465,755.654,803.126,755.654Zm65.434-40.722c-7.22,0-13.235,2.412-17.027,6.945v-6.392H840.521v49.425h11.564V739.92c0-9.908,5.55-14.906,13.787-14.906,7.409,0,11.753,4.257,11.753,13.046v26.848H889.19V736.593c0-14.906-8.789-21.661-20.644-21.661Zm58.025,50.63c15.371,0,26.383-10.547,26.383-25.352s-11.012-25.264-26.383-25.264c-15.182,0-26.281,10.46-26.281,25.264S911.4,765.562,926.585,765.562Zm0-9.908c-8.325,0-14.63-6.015-14.63-15.458s6.291-15.458,14.63-15.458c8.426,0,14.717,6.015,14.717,15.458S935.012,755.654,926.585,755.654Zm63.953-1.671a10.351,10.351,0,0,1-6.48,2.034c-4.446,0-6.843-2.586-6.843-7.409V725.1h13.235v-9.254H977.216V704.558H965.651v11.289H957.5V725.1h8.15v23.782c0,10.925,6.2,16.664,17.027,16.664,4.17,0,8.339-1.1,11.1-3.327l-3.24-8.237Zm57.56-13.511c0-15.458-10.547-25.54-24.988-25.54-14.717,0-25.54,10.548-25.54,25.264s10.736,25.352,27.313,25.352c8.513,0,15.458-2.775,19.9-8.049l-6.2-7.119a17.742,17.742,0,0,1-13.424,5.361c-8.615,0-14.63-4.62-16.01-11.84h38.775c.087-1.1.189-2.5.189-3.414Zm-24.988-16.286c7.583,0,13.046,4.91,13.976,12.029h-28.039A13.647,13.647,0,0,1,1023.11,724.186Zm47.115-1.482v-7.22h-11.012v49.424h11.564V740.937c0-10.082,5.55-15.269,14.339-15.269a14.429,14.429,0,0,1,2.688.276V714.932C1079.566,714.932,1073.551,717.518,1070.224,722.7Zm46-7.772c-7.961,0-15.647,2.034-20.92,6.1l4.533,8.426c3.7-3.051,9.443-4.91,14.993-4.91,8.237,0,12.305,3.981,12.305,10.736v.741h-12.77c-14.993,0-20.543,6.48-20.543,14.717,0,8.6,7.133,14.8,18.422,14.8,7.409,0,12.77-2.412,15.545-6.668v6.014h10.925V735.925c0-14.252-8.237-21.008-22.49-21.008Zm-1.569,42.2c-5.927,0-9.443-2.673-9.443-6.843,0-3.617,2.121-6.582,10-6.582h11.942v5.739C1125.2,754.549,1120.3,757.136,1114.651,757.136Zm66.277-42.2c-6.756,0-12.494,2.31-16.388,7.032v-6.479h-11.012v67.381h11.564V758.894c3.981,4.532,9.53,6.668,15.836,6.668,14.441,0,25.09-10,25.09-25.352,0-15.269-10.649-25.264-25.09-25.264Zm-1.293,40.722c-8.324,0-14.717-6.015-14.717-15.458s6.378-15.458,14.717-15.458,14.63,6.015,14.63,15.458S1187.974,755.654,1179.635,755.654Zm83.856-15.182c0-15.458-10.547-25.54-24.988-25.54-14.717,0-25.54,10.548-25.54,25.264s10.736,25.352,27.313,25.352c8.513,0,15.458-2.775,19.9-8.049l-6.2-7.119a17.742,17.742,0,0,1-13.424,5.361c-8.615,0-14.63-4.62-16.01-11.84h38.775c.087-1.1.189-2.5.189-3.414ZM1238.5,724.186c7.584,0,13.046,4.91,13.976,12.029H1224.44A13.647,13.647,0,0,1,1238.5,724.186Zm72.379-8.7v24.988c0,9.908-5.448,14.906-13.511,14.906-7.308,0-11.564-4.257-11.564-13.235V715.484h-11.564v28.228c0,14.906,8.6,21.836,21.284,21.836,6.392,0,12.218-2.412,15.923-6.945v6.291h11.012V715.469h-11.579Zm53.216,38.5a10.35,10.35,0,0,1-6.479,2.034c-4.446,0-6.843-2.586-6.843-7.409V725.1h13.235v-9.254h-13.235V704.558h-11.564v11.289h-8.15V725.1h8.15v23.782c0,10.925,6.2,16.664,17.027,16.664,4.17,0,8.339-1.1,11.1-3.327l-3.24-8.237Zm31.657-39.051c-7.961,0-15.647,2.034-20.921,6.1l4.533,8.426c3.7-3.051,9.443-4.91,14.993-4.91,8.237,0,12.305,3.981,12.305,10.736v.741H1393.9c-14.993,0-20.557,6.48-20.557,14.717,0,8.6,7.133,14.8,18.422,14.8,7.409,0,12.77-2.412,15.545-6.668v6.014h10.925V735.925c0-14.252-8.237-21.008-22.49-21.008Zm-1.569,42.2c-5.927,0-9.443-2.673-9.443-6.843,0-3.617,2.135-6.582,10-6.582h11.942v5.739C1404.733,754.549,1399.837,757.136,1394.186,757.136Zm114.031,7.772H1520.8l-29.245-64.8h-11.84l-29.158,64.8h12.407l6.392-14.993h32.4l6.479,14.993Zm-34.809-24.436,12.131-28.33,12.218,28.33Zm87.183-24.988-15.821,36.654-15.356-36.654h-12.03l21.2,49.424h11.942l21.2-49.424h-11.1Zm35.637-.552c-7.961,0-15.647,2.034-20.921,6.1l4.533,8.426c3.7-3.051,9.443-4.91,14.993-4.91,8.237,0,12.305,3.981,12.305,10.736v.741h-12.77c-14.993,0-20.543,6.48-20.543,14.717,0,8.6,7.133,14.8,18.407,14.8,7.409,0,12.77-2.412,15.545-6.668v6.015H1618.7V735.925c0-14.252-8.237-21.008-22.489-21.008Zm-1.569,42.2c-5.927,0-9.443-2.673-9.443-6.843,0-3.618,2.121-6.582,10-6.582h11.942v5.739c-1.947,5.1-6.842,7.685-12.494,7.685Zm66.916-42.2c-7.22,0-13.235,2.412-17.027,6.944v-6.392h-11.012v49.424H1645.1V739.92c0-9.908,5.55-14.906,13.787-14.906,7.41,0,11.753,4.257,11.753,13.046v26.848H1682.2V736.593c0-14.906-8.79-21.661-20.644-21.661Zm58.4,40.722c-8.513,0-14.993-5.826-14.993-15.458,0-9.531,6.479-15.458,14.993-15.458a13.99,13.99,0,0,1,12.32,6.843l8.891-5.186c-3.792-7.5-11.477-11.477-21.109-11.477-15.647,0-26.746,10.46-26.746,25.264,0,13.046,8.6,22.766,21.284,24.9l-2.324,8.6h2.877c3.516,0,4.9,1.293,4.9,3.051,0,2.034-1.482,3.327-4.9,3.327a13.171,13.171,0,0,1-6.291-1.482l-2.135,5.463a17.313,17.313,0,0,0,8.513,1.947c7.583,0,12.581-3.428,12.581-8.79,0-3.981-2.586-7.119-8.049-7.772l1.017-3.894c9.255-.189,16.664-4.344,20.354-11.564l-8.891-5.187a13.99,13.99,0,0,1-12.32,6.843Zm50.078-40.722c-7.961,0-15.647,2.034-20.92,6.1l4.533,8.426c3.7-3.051,9.443-4.91,14.993-4.91,8.237,0,12.305,3.981,12.305,10.736v.741H1768.2c-14.993,0-20.543,6.48-20.543,14.717,0,8.6,7.133,14.8,18.422,14.8,7.409,0,12.77-2.412,15.545-6.668v6.015h10.925V735.925c0-14.252-8.237-21.008-22.489-21.008Zm-1.569,42.2c-5.927,0-9.443-2.673-9.443-6.843,0-3.618,2.121-6.582,10-6.582h11.942v5.739c-1.947,5.1-6.843,7.685-12.494,7.685Zm76.171-60.9v25.352c-3.893-4.533-9.53-6.668-15.923-6.668-14.339,0-24.988,9.908-24.988,25.264s10.649,25.351,24.988,25.351c6.756,0,12.494-2.31,16.388-7.031v6.392h11.1V696.219h-11.564Zm-14.528,59.42c-8.325,0-14.717-6.015-14.717-15.458s6.378-15.458,14.717-15.458,14.717,6.015,14.717,15.458S1838.454,755.654,1830.13,755.654Zm63.487,9.908c15.356,0,26.383-10.548,26.383-25.352s-11.012-25.264-26.383-25.264c-15.182,0-26.281,10.46-26.281,25.264S1878.435,765.562,1893.617,765.562Zm0-9.908c-8.324,0-14.63-6.015-14.63-15.458s6.291-15.458,14.63-15.458c8.426,0,14.717,6.015,14.717,15.458S1902.043,755.654,1893.617,755.654Z" transform="translate(0 -456.013)" fill="#0a53a2"/>
    <g id="Grupo_505" data-name="Grupo 505">
      <path id="Caminho_523" data-name="Caminho 523" d="M0,708.981H75.43c57.531,0,96.641-36.305,96.641-89.478S132.946,530.01,75.43,530.01H0Zm25.569-22.242V552.252H73.89c44.238,0,72.611,27.095,72.611,67.25s-28.388,67.236-72.611,67.236H25.569Zm203.495-90.51V573.463H205.543V708.982h24.538v-67.5c0-29.666,16.359-45.763,42.7-45.763a42.244,42.244,0,0,1,5.622.262V572.2c-23.782,0-40.65,8.179-49.352,24.029ZM313.69,710.521c9.2,0,16.867-7.409,16.867-17.637s-7.671-17.39-16.867-17.39a17.091,17.091,0,0,0-17.39,17.39A17.292,17.292,0,0,0,313.69,710.521Z" transform="translate(0 -530.01)" fill="#0a53a2"/>
      <path id="Caminho_524" data-name="Caminho 524" d="M371.427,530.01H301.62V708.981h25.57v-54.2h44.238c46.534,0,74.66-23.521,74.66-62.383S417.961,530.01,371.427,530.01Zm-.77,102.525H327.189V552.252h43.468c32.732,0,49.86,14.571,49.86,40.141S403.389,632.535,370.657,632.535Z" transform="translate(136.576 -530.01)" fill="#0a53a2"/>
      <path id="Caminho_525" data-name="Caminho 525" d="M476.207,559.05c-21.734,0-41.928,6.131-55.991,17.39l10.228,18.407c10.489-8.949,26.848-14.572,42.959-14.572,24.291,0,36.306,12.015,36.306,32.732v4.867H470.846c-40.4,0-54.466,17.9-54.466,39.633,0,23.521,19.438,39.879,50.122,39.879,21.225,0,36.306-7.162,44.485-19.424v17.9h23.274V614.039c0-37.076-20.964-54.974-58.04-54.974Zm-5.622,119.406c-18.669,0-29.913-8.441-29.913-21.981,0-11.506,6.9-20.964,31.192-20.964h37.846v18.916c-6.131,15.6-20.7,24.03-39.11,24.03Z" transform="translate(188.539 -516.861)" fill="#0a53a2"/>
      <path id="Caminho_526" data-name="Caminho 526" d="M623.583,559.93v70.054c0,29.143-16.359,45.008-41.928,45.008C558.4,674.992,545.1,661.7,545.1,635.1V559.93H520.55v77.986c0,39.88,23.26,59.057,58.3,59.057,19.177,0,36.044-7.918,46.025-21.981v20.456H648.15V559.93H623.6Z" transform="translate(235.708 -516.462)" fill="#0a53a2"/>
      <path id="Caminho_527" data-name="Caminho 527" d="M631.4,708.981h24.552V530.01H631.4Z" transform="translate(285.902 -530.01)" fill="#0a53a2"/>
      <path id="Caminho_528" data-name="Caminho 528" d="M741.893,697.372c40.649,0,70.316-28.9,70.316-69.284s-29.666-69.037-70.316-69.037-70.563,28.635-70.563,69.037S701.243,697.372,741.893,697.372Zm0-21.473c-26.078,0-45.764-18.916-45.764-47.812s19.686-47.55,45.764-47.55,45.516,18.669,45.516,47.55S767.986,675.9,741.893,675.9Z" transform="translate(303.982 -516.861)" fill="#0a53a2"/>
      <path id="Caminho_529" data-name="Caminho 529" d="M994.99,530.01,930.036,677.019,865.6,530.01H838l78.742,178.971H942.05l78.51-178.971Z" transform="translate(379.452 -530.01)" fill="#0a53a2"/>
      <path id="Caminho_530" data-name="Caminho 530" d="M979.01,695.433h24.538V559.93H979.01Z" transform="translate(443.302 -516.462)" fill="#0a53a2"/>
      <path id="Caminho_531" data-name="Caminho 531" d="M1153.934,628.843c0-41.667-27.865-69.793-66.988-69.793s-68.006,28.9-68.006,69.037c0,40.4,29.144,69.284,72.873,69.284,22.5,0,41.173-7.671,53.434-21.981l-13.555-15.85c-9.966,11-23.274,16.359-39.124,16.359-26.847,0-46.025-15.85-49.091-39.633h109.949c.261-2.3.508-5.36.508-7.409Zm-66.988-49.09c23.768,0,40.911,16.1,43.468,38.863h-86.936C1046.035,595.6,1063.425,579.753,1086.946,579.753Z" transform="translate(461.383 -516.861)" fill="#0a53a2"/>
      <path id="Caminho_532" data-name="Caminho 532" d="M1134.9,695.433h24.552V559.93H1134.9Z" transform="translate(513.89 -516.462)" fill="#0a53a2"/>
      <path id="Caminho_533" data-name="Caminho 533" d="M1198.351,583.079V560.314H1174.83V695.832h24.538v-67.5c0-29.666,16.359-45.763,42.7-45.763a42.33,42.33,0,0,1,5.623.261V559.05c-23.783,0-40.65,8.179-49.352,24.029Z" transform="translate(531.971 -516.861)" fill="#0a53a2"/>
      <path id="Caminho_534" data-name="Caminho 534" d="M1300.172,559.05c-21.734,0-41.927,6.131-55.99,17.39l10.228,18.407c10.489-8.949,26.847-14.572,42.959-14.572,24.291,0,36.305,12.015,36.305,32.732v4.867h-38.863c-40.4,0-54.451,17.9-54.451,39.633,0,23.521,19.439,39.879,50.108,39.879,21.225,0,36.306-7.162,44.484-19.424v17.9h23.275V614.039c0-37.076-20.965-54.974-58.04-54.974Zm-5.623,119.406c-18.668,0-29.913-8.441-29.913-21.981,0-11.506,6.9-20.964,31.193-20.964h37.845v18.916c-6.13,15.6-20.7,24.03-39.109,24.03Z" transform="translate(561.643 -516.861)" fill="#0a53a2"/>
      <path id="Caminho_535" data-name="Caminho 535" d="M991.938,530.01a14.368,14.368,0,1,1-14.368,14.368A14.372,14.372,0,0,1,991.938,530.01Z" transform="translate(442.65 -530.01)" fill="#0a53a2" fill-rule="evenodd"/>
      <path id="Caminho_536" data-name="Caminho 536" d="M1147.828,530.01a14.368,14.368,0,1,1-14.368,14.368A14.372,14.372,0,0,1,1147.828,530.01Z" transform="translate(513.238 -530.01)" fill="#0a53a2" fill-rule="evenodd"/>
    </g>
  </g>
</svg>
